<svg width="14" height="14" viewBox="0 0 14 14" fill="none" xmlns="http://www.w3.org/2000/svg">
<path fill-rule="evenodd" clip-rule="evenodd" d="M12.7222 6.16658H7.7222V1.16659C7.7222 0.706585 7.34886 0.333252 6.88886 0.333252C6.42886 0.333252 6.05553 0.706585 6.05553 1.16659V6.16658H1.05553C0.595532 6.16658 0.222198 6.53992 0.222198 6.99992C0.222198 7.45992 0.595532 7.83325 1.05553 7.83325H6.05553V12.8333C6.05553 13.2933 6.42886 13.6666 6.88886 13.6666C7.34886 13.6666 7.7222 13.2933 7.7222 12.8333V7.83325H12.7222C13.1822 7.83325 13.5555 7.45992 13.5555 6.99992C13.5555 6.53992 13.1822 6.16658 12.7222 6.16658Z" fill="black"/>
</svg>
