<svg width="90" height="55" viewBox="0 0 90 55" fill="none" xmlns="http://www.w3.org/2000/svg">
<path d="M0 3.50031C0 1.56671 1.5664 0.000305176 3.5 0.000305176H86.5C88.4336 0.000305176 90 1.56671 90 3.50031C90 5.43391 88.4336 7.00031 86.5 7.00031H3.5C1.5664 7.00031 0 5.43391 0 3.50031Z" fill="black"/>
<path d="M0 51.5002C0 49.5666 1.5664 48.0002 3.5 48.0002H86.5C88.4336 48.0002 90 49.5666 90 51.5002C90 53.4338 88.4336 55.0002 86.5 55.0002H3.5C1.5664 55.0002 0 53.4338 0 51.5002Z" fill="black"/>
<path d="M3.5 24.0002C1.5664 24.0002 0 25.5666 0 27.5002C0 29.4338 1.5664 31.0002 3.5 31.0002H86.5C88.4336 31.0002 90 29.4338 90 27.5002C90 25.5666 88.4336 24.0002 86.5 24.0002H3.5Z" fill="black"/>
</svg>
