<svg width="16" height="17" viewBox="0 0 16 17" fill="none" xmlns="http://www.w3.org/2000/svg">
<path fill-rule="evenodd" clip-rule="evenodd" d="M3 0.455688H1C0.447 0.455688 0 0.902689 0 1.45569V3.45569C0 4.00769 0.447 4.45569 1 4.45569H3C3.553 4.45569 4 4.00769 4 3.45569V1.45569C4 0.902689 3.553 0.455688 3 0.455688ZM9 0.455688H7C6.447 0.455688 6 0.902689 6 1.45569V3.45569C6 4.00769 6.447 4.45569 7 4.45569H9C9.553 4.45569 10 4.00769 10 3.45569V1.45569C10 0.902689 9.553 0.455688 9 0.455688ZM15 0.455688H13C12.447 0.455688 12 0.902689 12 1.45569V3.45569C12 4.00769 12.447 4.45569 13 4.45569H15C15.553 4.45569 16 4.00769 16 3.45569V1.45569C16 0.902689 15.553 0.455688 15 0.455688ZM3 6.45569H1C0.447 6.45569 0 6.90269 0 7.45569V9.45569C0 10.0077 0.447 10.4557 1 10.4557H3C3.553 10.4557 4 10.0077 4 9.45569V7.45569C4 6.90269 3.553 6.45569 3 6.45569ZM9 6.45569H7C6.447 6.45569 6 6.90269 6 7.45569V9.45569C6 10.0077 6.447 10.4557 7 10.4557H9C9.553 10.4557 10 10.0077 10 9.45569V7.45569C10 6.90269 9.553 6.45569 9 6.45569ZM15 6.45569H13C12.447 6.45569 12 6.90269 12 7.45569V9.45569C12 10.0077 12.447 10.4557 13 10.4557H15C15.553 10.4557 16 10.0077 16 9.45569V7.45569C16 6.90269 15.553 6.45569 15 6.45569ZM3 12.4557H1C0.447 12.4557 0 12.9027 0 13.4557V15.4557C0 16.0077 0.447 16.4557 1 16.4557H3C3.553 16.4557 4 16.0077 4 15.4557V13.4557C4 12.9027 3.553 12.4557 3 12.4557ZM9 12.4557H7C6.447 12.4557 6 12.9027 6 13.4557V15.4557C6 16.0077 6.447 16.4557 7 16.4557H9C9.553 16.4557 10 16.0077 10 15.4557V13.4557C10 12.9027 9.553 12.4557 9 12.4557ZM15 12.4557H13C12.447 12.4557 12 12.9027 12 13.4557V15.4557C12 16.0077 12.447 16.4557 13 16.4557H15C15.553 16.4557 16 16.0077 16 15.4557V13.4557C16 12.9027 15.553 12.4557 15 12.4557Z" fill="black"/>
</svg>
