<svg width="16" height="14" viewBox="0 0 16 14" fill="none" xmlns="http://www.w3.org/2000/svg">
<path fill-rule="evenodd" clip-rule="evenodd" d="M7.08772 2.45901C5.84101 1.21764 3.81832 1.21764 2.57155 2.45901C1.32816 3.69772 1.32816 5.70384 2.57155 6.9419L8.12439 12.472L13.6772 6.9419C14.9206 5.70386 14.9206 3.69775 13.6772 2.45901C12.4305 1.21764 10.4078 1.21764 9.16106 2.45901C8.5877 3.0297 7.661 3.0297 7.08772 2.45901ZM8.96717 13.3181C8.50115 13.7828 7.7478 13.7828 7.28178 13.3181L1.72894 7.78861C0.0162368 6.08321 0.0162368 3.31783 1.72894 1.6123C3.44096 -0.0930973 6.2178 -0.0930973 7.93051 1.6123C8.03784 1.71897 8.21118 1.71897 8.31851 1.6123C10.0312 -0.0930973 12.8081 -0.0930973 14.5201 1.6123C16.2328 3.3177 16.2328 6.08307 14.5201 7.78861L8.96717 13.3181Z" fill="black"/>
</svg>
