<svg width="89" height="66" viewBox="0 0 89 66" fill="none" xmlns="http://www.w3.org/2000/svg">
<path fill-rule="evenodd" clip-rule="evenodd" d="M1.45645 37.1684C-0.485442 34.3941 -0.485442 30.7075 1.45645 27.9333C5.92753 21.5457 11.7995 16.1997 18.6292 12.336L10.5594 4.26617C9.58303 3.28977 9.58303 1.70677 10.5594 0.730469C11.5358 -0.245931 13.1187 -0.245931 14.0951 0.730469L74.5527 61.1881C75.529 62.1643 75.529 63.7472 74.5527 64.7235C73.5764 65.6998 71.9935 65.6998 71.0172 64.7235L62.6374 56.3437C56.9854 58.4179 50.8754 59.5508 44.5 59.5508C26.675 59.5508 10.9248 50.6951 1.45645 37.1684ZM44.5 54.5508C28.3685 54.5508 14.1214 46.5427 5.55263 34.3011C4.81583 33.2484 4.81583 31.8532 5.55263 30.8005C9.86353 24.6419 15.6115 19.5548 22.3135 16.0198L30.7158 24.4221C29.3079 26.8043 28.5 29.5832 28.5 32.5508C28.5 41.3874 35.6634 48.5508 44.5 48.5508C47.4676 48.5508 50.2465 47.7429 52.6287 46.335L58.6954 52.4017C54.2136 53.7982 49.4454 54.5508 44.5 54.5508ZM44.5 43.5508C38.4249 43.5508 33.5 38.6259 33.5 32.5508C33.5 30.9785 33.8299 29.4832 34.4242 28.1305L48.9203 42.6266C47.5676 43.2209 46.0723 43.5508 44.5 43.5508Z" fill="black"/>
<path d="M83.4474 30.8005C74.8786 18.5589 60.6315 10.5508 44.5 10.5508C40.3568 10.5508 36.3379 11.0791 32.5075 12.0717L28.4708 8.03488C33.5232 6.42188 38.9096 5.55078 44.5 5.55078C62.325 5.55078 78.0752 14.4066 87.5436 27.9333C89.4855 30.7075 89.4855 34.3941 87.5436 37.1684C83.4654 42.9946 78.2217 47.9543 72.1489 51.713L68.5062 48.0703C74.4309 44.6046 79.5319 39.8948 83.4474 34.3011C84.1842 33.2484 84.1842 31.8532 83.4474 30.8005Z" fill="black"/>
<path d="M55.5 32.5508C55.5 26.4757 50.5751 21.5508 44.5 21.5508C43.7192 21.5508 42.9575 21.6321 42.2227 21.7868L38.2524 17.8165C40.1718 17.0016 42.2833 16.5508 44.5 16.5508C53.3366 16.5508 60.5 23.7142 60.5 32.5508C60.5 34.7675 60.0492 36.879 59.2343 38.7984L55.264 34.8281C55.4187 34.0933 55.5 33.3316 55.5 32.5508Z" fill="black"/>
</svg>
