<svg width="18" height="13" viewBox="0 0 18 13" fill="none" xmlns="http://www.w3.org/2000/svg">
<path fill-rule="evenodd" clip-rule="evenodd" d="M17.99 1.44569C17.99 0.898688 17.547 0.455688 17 0.455688H4.98C4.433 0.455688 3.99 0.898688 3.99 1.44569V1.46569C3.99 2.01269 4.433 2.45569 4.98 2.45569H17C17.547 2.45569 17.99 2.01269 17.99 1.46569V1.44569ZM1.009 0.455688H0.99C0.443 0.455688 0 0.898688 0 1.44569V1.46569C0 2.01269 0.443 2.45569 0.99 2.45569H1.009C1.556 2.45569 2 2.01269 2 1.46569V1.44569C2 0.898688 1.556 0.455688 1.009 0.455688ZM17.99 6.44569C17.99 5.89869 17.547 5.45569 17 5.45569H4.98C4.433 5.45569 3.99 5.89869 3.99 6.44569V6.46569C3.99 7.01269 4.433 7.45569 4.98 7.45569H17C17.547 7.45569 17.99 7.01269 17.99 6.46569V6.44569ZM1.009 5.45569H0.99C0.443 5.45569 0 5.89869 0 6.44569V6.46569C0 7.01269 0.443 7.45569 0.99 7.45569H1.009C1.556 7.45569 2 7.01269 2 6.46569V6.44569C2 5.89869 1.556 5.45569 1.009 5.45569ZM17.99 11.4457C17.99 10.8987 17.547 10.4557 17 10.4557H4.98C4.433 10.4557 3.99 10.8987 3.99 11.4457V11.4657C3.99 12.0127 4.433 12.4557 4.98 12.4557H17C17.547 12.4557 17.99 12.0127 17.99 11.4657V11.4457ZM1.009 10.4557H0.99C0.443 10.4557 0 10.8987 0 11.4457V11.4657C0 12.0127 0.443 12.4557 0.99 12.4557H1.009C1.556 12.4557 2 12.0127 2 11.4657V11.4457C2 10.8987 1.556 10.4557 1.009 10.4557Z" fill="black"/>
</svg>
