<svg width="90" height="90" viewBox="0 0 90 90" fill="none" xmlns="http://www.w3.org/2000/svg">
<path fill-rule="evenodd" clip-rule="evenodd" d="M33.5 0.00120497C15 0.00120497 0 15.0012 0 33.5012C0 52.0012 15 67.0012 33.5 67.0012C41.4883 67.0012 48.828 64.2043 54.586 59.5364L84.024 88.9774C85.3912 90.3446 87.6099 90.3446 88.9771 88.9774C90.3443 87.6102 90.3443 85.3915 88.9771 84.0243L59.5361 54.5863C64.2041 48.8285 67.0009 41.4883 67.0009 33.5003C67.0009 15.0003 52.0009 0.000305176 33.5009 0.000305176L33.5 0.00120497ZM7 33.5012C7 18.8642 18.863 7.0012 33.5 7.0012C48.137 7.0012 60 18.8642 60 33.5012C60 48.1382 48.137 60.0012 33.5 60.0012C18.863 60.0012 7 48.1382 7 33.5012Z" fill="black"/>
</svg>
