<svg width="78" height="90" viewBox="0 0 78 90" fill="none" xmlns="http://www.w3.org/2000/svg">
<path fill-rule="evenodd" clip-rule="evenodd" d="M31.8112 7C31.8112 3.1328 34.944 0 38.8112 0C42.6784 0 45.8112 3.1328 45.8112 7V7.19531C61.4362 10.3945 73.1862 24.2183 73.1862 40.7893V55.0273C73.1862 56.2304 73.4049 57.4257 73.8268 58.5507L77.1393 67.3593C78.9831 72.2655 75.3581 77.5003 70.1198 77.5003H52.2758C51.7641 84.4886 45.932 90.0003 38.8108 90.0003C31.6896 90.0003 25.8578 84.4886 25.3458 77.5003H7.5058C2.3535 77.5003 -1.2637 72.4261 0.416004 67.555L3.541 58.4925C3.90428 57.4378 4.08788 56.3284 4.08788 55.2113V41.3093C4.08788 24.5123 15.9859 10.4973 31.8109 7.22331L31.8112 7ZM32.3893 77.5C32.8698 80.6133 35.5612 83 38.8112 83C42.0612 83 44.7526 80.6133 45.2331 77.5H32.3893ZM38.8971 13.5C23.5421 13.5 11.0881 25.949 11.0881 41.309V55.211C11.0881 57.1055 10.7756 58.9844 10.1584 60.7735L7.03341 69.836C6.92404 70.1602 7.16232 70.5001 7.50607 70.5001H70.1191C70.4706 70.5001 70.7089 70.1524 70.5878 69.8243L67.2753 61.0157C66.5566 59.1016 66.1855 57.0743 66.1855 55.0274V40.7894C66.1855 25.7194 53.9711 13.5 38.8971 13.5Z" fill="black"/>
</svg>
