<svg width="126" height="125" viewBox="0 0 126 125" fill="none" xmlns="http://www.w3.org/2000/svg">
<path d="M35.8164 11.1185C34.8389 11.6307 33.6262 11.2596 33.1139 10.2769C32.6017 9.29939 32.9728 8.08669 33.9555 7.57443C45.8475 1.32259 59.3341 -0.820502 72.3078 1.15532C84.9734 3.07895 97.1577 8.92305 106.902 18.6667C119.05 30.8149 125.13 46.7417 125.13 62.6701C125.13 78.5917 119.056 94.5254 106.902 106.673C106.118 107.458 104.848 107.458 104.064 106.673C103.28 105.889 103.28 104.619 104.064 103.835C115.428 92.4709 121.115 77.5733 121.115 62.6753C121.115 47.7773 115.433 32.8794 104.064 21.5156C94.9476 12.3992 83.547 6.93211 71.7121 5.13359C59.5588 3.28316 46.9344 5.28518 35.8222 11.1293L35.8164 11.1185ZM62.8985 48.1901C66.8974 48.1901 70.5198 49.8105 73.1386 52.4294C75.7574 55.0482 77.378 58.6708 77.378 62.6696C77.378 66.6683 75.7576 70.2909 73.1386 72.9097C70.5198 75.5285 66.8972 77.1491 62.8985 77.1491C58.8997 77.1491 55.2771 75.5287 52.6583 72.9097C50.0395 70.2909 48.419 66.6683 48.419 62.6696C48.419 58.6708 50.0394 55.0482 52.6583 52.4294C55.2771 49.8106 58.8997 48.1901 62.8985 48.1901ZM70.3002 55.2678C68.4079 53.3755 65.7891 52.2046 62.8985 52.2046C60.0079 52.2046 57.3889 53.3755 55.4967 55.2678C53.6045 57.1601 52.4335 59.779 52.4335 62.6696C52.4335 65.5602 53.6044 68.1791 55.4967 70.0713C57.3891 71.9635 60.0079 73.1345 62.8985 73.1345C65.7891 73.1345 68.408 71.9636 70.3002 70.0713C72.1924 68.179 73.3634 65.5602 73.3634 62.6696C73.3634 59.779 72.1925 57.16 70.3002 55.2678ZM53.6988 45.3464C52.7265 45.8639 51.5138 45.498 50.9963 44.5205C50.4788 43.5482 50.8447 42.3355 51.8222 41.8181C53.5054 40.9242 55.3088 40.2238 57.1906 39.7533C59.0306 39.2933 60.949 39.0528 62.9039 39.0528C69.4119 39.0528 75.3186 41.6978 79.5951 45.9685L79.6055 45.979C83.8762 50.2548 86.516 56.1565 86.516 62.6647C86.516 69.1727 83.871 75.0794 79.6003 79.3558L79.5898 79.3663C75.314 83.6369 69.4123 86.2768 62.9041 86.2768C56.3961 86.2768 50.4894 83.6317 46.213 79.3611L46.2025 79.3506C41.9318 75.0747 39.292 69.1731 39.292 62.6649C39.292 61.1437 39.4384 59.6435 39.7207 58.1798C40.0081 56.69 40.4368 55.2421 40.9909 53.862C41.4038 52.8375 42.5695 52.3357 43.594 52.7486C44.6186 53.1616 45.1204 54.3273 44.7074 55.3518C44.2474 56.4913 43.892 57.6936 43.6515 58.9325C43.4215 60.1295 43.3013 61.3736 43.3013 62.6648C43.3013 68.0803 45.4915 72.9834 49.0357 76.5217C52.5849 80.0709 57.4829 82.2612 62.9032 82.2612C68.3187 82.2612 73.2218 80.071 76.7601 76.5269C80.3093 72.9776 82.4997 68.0796 82.4997 62.6593C82.4997 57.2439 80.3095 52.3408 76.7653 48.8025C73.216 45.2532 68.318 43.0629 62.8977 43.0629C61.2459 43.0629 59.6516 43.2615 58.1409 43.6379C56.5727 44.0247 55.0777 44.6049 53.6978 45.3419L53.6988 45.3464ZM48.2676 49.6223C47.5253 50.443 46.2604 50.5109 45.4344 49.7739C44.6137 49.0316 44.5458 47.7666 45.2828 46.9407L45.4867 46.7159C46.229 45.8953 47.494 45.8273 48.3199 46.5643C49.1406 47.3066 49.2085 48.5716 48.4715 49.3975L48.2676 49.6223ZM87.7225 15.4198C88.7 15.9321 89.0763 17.1448 88.5641 18.1222C88.0518 19.0997 86.8391 19.4761 85.8616 18.9638C76.4368 14.0084 65.7368 12.3147 55.4341 13.8829C45.3978 15.4092 35.7428 20.0407 28.0068 27.7719C18.373 37.4057 13.5531 50.0405 13.5531 62.6689C13.5531 75.2973 18.3727 87.927 28.0068 97.566C28.7909 98.35 28.7909 99.6203 28.0068 100.404C27.2227 101.188 25.9524 101.188 25.1684 100.404C14.7504 89.9864 9.53844 76.3278 9.53844 62.669C9.53844 49.0102 14.75 35.3568 25.1684 24.9337C33.5268 16.5753 43.9765 11.5676 54.8331 9.91534C65.9568 8.22174 77.5242 10.0566 87.7225 15.4198ZM38.0734 109.913C37.0959 109.4 36.7195 108.188 37.2318 107.21C37.744 106.233 38.9568 105.856 39.9342 106.369C49.359 111.324 60.0591 113.018 70.3618 111.45C80.3981 109.923 90.0531 105.292 97.7891 97.5606C107.423 87.9268 112.243 75.2919 112.243 62.6635C112.243 50.0351 107.423 37.4054 97.7891 27.7665C97.005 26.9824 97.005 25.7121 97.7891 24.9281C98.5732 24.144 99.8434 24.144 100.627 24.9281C111.045 35.3461 116.257 49.0046 116.257 62.6634C116.257 76.3222 111.046 89.9756 100.627 100.399C92.2691 108.757 81.8194 113.765 70.9627 115.417C59.8391 117.111 48.2716 115.276 38.0734 109.913ZM89.98 114.215C90.9575 113.702 92.1702 114.073 92.6825 115.056C93.1947 116.034 92.8236 117.246 91.8409 117.759C79.9489 124.011 66.4623 126.154 53.4886 124.178C40.823 122.254 28.6387 116.41 18.894 106.666C6.7459 94.5182 0.666687 78.5914 0.666687 62.663C0.666687 46.7414 6.74082 30.8077 18.894 18.6597C19.6781 17.8756 20.9484 17.8756 21.7324 18.6597C22.5165 19.4438 22.5165 20.714 21.7324 21.4981C10.3684 32.8622 4.68136 47.7598 4.68136 62.6578C4.68136 77.5557 10.3634 92.4537 21.7324 103.818C30.8488 112.934 42.2494 118.401 54.0843 120.2C66.2376 122.05 78.862 120.048 89.9742 114.204L89.98 114.215Z" fill="black"/>
</svg>
