<svg width="90" height="68" viewBox="0 0 90 68" fill="none" xmlns="http://www.w3.org/2000/svg">
<path fill-rule="evenodd" clip-rule="evenodd" d="M75.5 0.455688C68.6992 0.455688 62.992 5.13929 61.426 11.4557H3.5C1.5664 11.4557 0 13.0221 0 14.9557C0 16.8893 1.5664 18.4557 3.5 18.4557H61.426C62.9924 24.7721 68.6994 29.4557 75.5 29.4557C83.5078 29.4557 90 22.9635 90 14.9557C90 6.94789 83.5078 0.455688 75.5 0.455688ZM68 14.9557C68 10.8151 71.3594 7.45569 75.5 7.45569C79.6406 7.45569 83 10.8151 83 14.9557C83 19.0963 79.6406 22.4557 75.5 22.4557C71.3594 22.4557 68 19.0963 68 14.9557Z" fill="black"/>
<path fill-rule="evenodd" clip-rule="evenodd" d="M14.5 67.4557C21.3008 67.4557 27.008 62.7721 28.574 56.4557H86.5C88.4336 56.4557 90 54.8893 90 52.9557C90 51.0221 88.4336 49.4557 86.5 49.4557H28.574C27.0076 43.1393 21.3006 38.4557 14.5 38.4557C6.4922 38.4557 0 44.9479 0 52.9557C0 60.9635 6.4922 67.4557 14.5 67.4557ZM22 52.9557C22 57.0963 18.6406 60.4557 14.5 60.4557C10.3594 60.4557 7 57.0963 7 52.9557C7 48.8151 10.3594 45.4557 14.5 45.4557C18.6406 45.4557 22 48.8151 22 52.9557Z" fill="black"/>
</svg>
