<svg width="59" height="44" viewBox="0 0 59 44" fill="none" xmlns="http://www.w3.org/2000/svg">
<g clip-path="url(#clip0_34_252)">
<rect width="59" height="44" rx="10" fill="#353535"/>
<path d="M16.3412 12.1667L13.6182 4H45.3818L42.6588 12.1667H16.3412ZM54 4V39H5V4H11.16L14.66 14.5H44.3412L47.8412 4H54ZM24.8333 25C24.8333 21.7835 22.2165 19.1667 19 19.1667C15.7835 19.1667 13.1667 21.7835 13.1667 25C13.1667 28.2165 15.7835 30.8333 19 30.8333C22.2165 30.8333 24.8333 28.2165 24.8333 25ZM45.8333 25C45.8333 21.7835 43.2165 19.1667 40 19.1667C36.7835 19.1667 34.1667 21.7835 34.1667 25C34.1667 28.2165 36.7835 30.8333 40 30.8333C43.2165 30.8333 45.8333 28.2165 45.8333 25Z" fill="#474747"/>
<g filter="url(#filter0_d_34_252)">
<rect x="-64" y="26.97" width="204.687" height="3.55359" fill="#3F88C5"/>
</g>
<g filter="url(#filter1_d_34_252)">
<rect x="-64" y="23.9851" width="204.687" height="3.55359" fill="#AD343E"/>
</g>
<g filter="url(#filter2_d_34_252)">
<rect x="-64" y="20.4314" width="204.687" height="3.55359" fill="#F2AF29"/>
</g>
<g filter="url(#filter3_d_34_252)">
<path d="M11.0546 19.473C11.7454 19.473 12.3361 19.5731 12.8266 19.7734C13.3172 19.9636 13.7927 20.2639 14.2533 20.6744L13.4724 21.5454C13.0819 21.235 12.6965 21.0098 12.3161 20.8696C11.9456 20.7194 11.5452 20.6443 11.1147 20.6443C10.5741 20.6443 10.1286 20.7695 9.77816 21.0198C9.42776 21.2701 9.25256 21.6355 9.25256 22.116C9.25256 22.4164 9.31263 22.6717 9.43277 22.8819C9.55291 23.0821 9.77316 23.2673 10.0935 23.4375C10.4239 23.6077 10.8994 23.7879 11.5201 23.9781C12.1709 24.1784 12.7115 24.3936 13.142 24.6239C13.5725 24.8541 13.9179 25.1745 14.1782 25.585C14.4485 25.9854 14.5836 26.496 14.5836 27.1167C14.5836 27.7174 14.4335 28.248 14.1331 28.7085C13.8428 29.1691 13.4173 29.5295 12.8567 29.7898C12.306 30.0501 11.6503 30.1802 10.8894 30.1802C9.4578 30.1802 8.28646 29.7347 7.37543 28.8437L8.15632 27.9727C8.5768 28.3131 9.00228 28.5734 9.43277 28.7536C9.86326 28.9238 10.3438 29.0089 10.8744 29.0089C11.5151 29.0089 12.0457 28.8537 12.4662 28.5433C12.8867 28.223 13.0969 27.7625 13.0969 27.1618C13.0969 26.8214 13.0319 26.5411 12.9017 26.3208C12.7716 26.0905 12.5463 25.8853 12.2259 25.7051C11.9156 25.5249 11.4601 25.3447 10.8594 25.1645C9.79819 24.8441 9.0223 24.4587 8.53174 24.0082C8.04119 23.5577 7.79591 22.947 7.79591 22.1761C7.79591 21.6555 7.93106 21.19 8.20137 20.7795C8.48169 20.369 8.86713 20.0487 9.35768 19.8184C9.85825 19.5881 10.4239 19.473 11.0546 19.473ZM20.2439 21.9058C21.2551 21.9058 21.9959 22.2662 22.4664 22.987C22.937 23.7078 23.1722 24.724 23.1722 26.0355C23.1722 27.2769 22.9019 28.278 22.3613 29.0389C21.8207 29.7998 21.0548 30.1802 20.0637 30.1802C19.1827 30.1802 18.4919 29.8799 17.9913 29.2792V33.0335L16.6098 33.1986V22.086H17.7961L17.9012 23.1522C18.1916 22.7517 18.542 22.4464 18.9524 22.2362C19.3629 22.0159 19.7934 21.9058 20.2439 21.9058ZM19.7333 29.0539C21.0348 29.0539 21.6855 28.0478 21.6855 26.0355C21.6855 24.0132 21.0899 23.002 19.8985 23.002C19.5081 23.002 19.1527 23.1172 18.8323 23.3474C18.5119 23.5777 18.2316 23.873 17.9913 24.2334V28.0928C18.1916 28.4032 18.4419 28.6435 18.7422 28.8136C19.0425 28.9738 19.3729 29.0539 19.7333 29.0539ZM26.9077 22.086V30H25.5262V22.086H26.9077ZM26.2019 18.2867C26.4923 18.2867 26.7275 18.3768 26.9077 18.557C27.0879 18.7372 27.178 18.9624 27.178 19.2327C27.178 19.503 27.0879 19.7283 26.9077 19.9085C26.7275 20.0787 26.4923 20.1638 26.2019 20.1638C25.9216 20.1638 25.6914 20.0787 25.5112 19.9085C25.3309 19.7283 25.2408 19.503 25.2408 19.2327C25.2408 18.9624 25.3309 18.7372 25.5112 18.557C25.6914 18.3768 25.9216 18.2867 26.2019 18.2867ZM33.4886 21.9058C34.2095 21.9058 34.7701 22.121 35.1705 22.5515C35.581 22.982 35.7862 23.5727 35.7862 24.3235V30H34.4047V24.5188C34.4047 23.9581 34.2996 23.5627 34.0893 23.3324C33.8791 23.1021 33.5687 22.987 33.1583 22.987C32.7378 22.987 32.3674 23.1072 32.047 23.3474C31.7266 23.5877 31.4263 23.9331 31.146 24.3836V30H29.7644V22.086H30.9507L31.0709 23.2573C31.3512 22.8368 31.6966 22.5065 32.1071 22.2662C32.5275 22.0259 32.9881 21.9058 33.4886 21.9058ZM40.0652 19.6532V30H38.6386V19.6532H40.0652ZM46.9869 29.6396C46.4663 30 45.8756 30.1802 45.2149 30.1802C44.5441 30.1802 44.0185 29.99 43.6381 29.6096C43.2677 29.2191 43.0824 28.6585 43.0824 27.9276V23.1522H41.7009V22.086H43.0824V20.299L44.464 20.1338V22.086H46.3412L46.191 23.1522H44.464V27.8676C44.464 28.278 44.5341 28.5784 44.6743 28.7686C44.8244 28.9488 45.0697 29.0389 45.4101 29.0389C45.7204 29.0389 46.0708 28.9338 46.4613 28.7235L46.9869 29.6396ZM49.6034 19.6532L49.4532 26.5461H48.2368L48.0716 19.6532H49.6034ZM48.8525 28.0928C49.1529 28.0928 49.4032 28.1929 49.6034 28.3932C49.8036 28.5934 49.9037 28.8387 49.9037 29.129C49.9037 29.4193 49.8036 29.6696 49.6034 29.8799C49.4032 30.0801 49.1529 30.1802 48.8525 30.1802C48.5622 30.1802 48.3169 30.0801 48.1167 29.8799C47.9165 29.6696 47.8164 29.4193 47.8164 29.129C47.8164 28.8387 47.9165 28.5934 48.1167 28.3932C48.3169 28.1929 48.5622 28.0928 48.8525 28.0928Z" fill="#E0E0CE"/>
</g>
</g>
<defs>
<filter id="filter0_d_34_252" x="-65.4214" y="26.1171" width="207.53" height="6.39634" filterUnits="userSpaceOnUse" color-interpolation-filters="sRGB">
<feFlood flood-opacity="0" result="BackgroundImageFix"/>
<feColorMatrix in="SourceAlpha" type="matrix" values="0 0 0 0 0 0 0 0 0 0 0 0 0 0 0 0 0 0 127 0" result="hardAlpha"/>
<feOffset dy="0.568574"/>
<feGaussianBlur stdDeviation="0.710717"/>
<feComposite in2="hardAlpha" operator="out"/>
<feColorMatrix type="matrix" values="0 0 0 0 0 0 0 0 0 0 0 0 0 0 0 0 0 0 0.25 0"/>
<feBlend mode="normal" in2="BackgroundImageFix" result="effect1_dropShadow_34_252"/>
<feBlend mode="normal" in="SourceGraphic" in2="effect1_dropShadow_34_252" result="shape"/>
</filter>
<filter id="filter1_d_34_252" x="-65.4214" y="23.1322" width="207.53" height="6.39634" filterUnits="userSpaceOnUse" color-interpolation-filters="sRGB">
<feFlood flood-opacity="0" result="BackgroundImageFix"/>
<feColorMatrix in="SourceAlpha" type="matrix" values="0 0 0 0 0 0 0 0 0 0 0 0 0 0 0 0 0 0 127 0" result="hardAlpha"/>
<feOffset dy="0.568574"/>
<feGaussianBlur stdDeviation="0.710717"/>
<feComposite in2="hardAlpha" operator="out"/>
<feColorMatrix type="matrix" values="0 0 0 0 0 0 0 0 0 0 0 0 0 0 0 0 0 0 0.25 0"/>
<feBlend mode="normal" in2="BackgroundImageFix" result="effect1_dropShadow_34_252"/>
<feBlend mode="normal" in="SourceGraphic" in2="effect1_dropShadow_34_252" result="shape"/>
</filter>
<filter id="filter2_d_34_252" x="-65.4214" y="19.5785" width="207.53" height="6.39634" filterUnits="userSpaceOnUse" color-interpolation-filters="sRGB">
<feFlood flood-opacity="0" result="BackgroundImageFix"/>
<feColorMatrix in="SourceAlpha" type="matrix" values="0 0 0 0 0 0 0 0 0 0 0 0 0 0 0 0 0 0 127 0" result="hardAlpha"/>
<feOffset dy="0.568574"/>
<feGaussianBlur stdDeviation="0.710717"/>
<feComposite in2="hardAlpha" operator="out"/>
<feColorMatrix type="matrix" values="0 0 0 0 0 0 0 0 0 0 0 0 0 0 0 0 0 0 0.25 0"/>
<feBlend mode="normal" in2="BackgroundImageFix" result="effect1_dropShadow_34_252"/>
<feBlend mode="normal" in="SourceGraphic" in2="effect1_dropShadow_34_252" result="shape"/>
</filter>
<filter id="filter3_d_34_252" x="6.3907" y="18.2866" width="44.4978" height="16.8816" filterUnits="userSpaceOnUse" color-interpolation-filters="sRGB">
<feFlood flood-opacity="0" result="BackgroundImageFix"/>
<feColorMatrix in="SourceAlpha" type="matrix" values="0 0 0 0 0 0 0 0 0 0 0 0 0 0 0 0 0 0 127 0" result="hardAlpha"/>
<feOffset dy="0.984728"/>
<feGaussianBlur stdDeviation="0.492364"/>
<feComposite in2="hardAlpha" operator="out"/>
<feColorMatrix type="matrix" values="0 0 0 0 0 0 0 0 0 0 0 0 0 0 0 0 0 0 0.25 0"/>
<feBlend mode="normal" in2="BackgroundImageFix" result="effect1_dropShadow_34_252"/>
<feBlend mode="normal" in="SourceGraphic" in2="effect1_dropShadow_34_252" result="shape"/>
</filter>
<clipPath id="clip0_34_252">
<rect width="59" height="44" fill="white"/>
</clipPath>
</defs>
</svg>
