<svg width="192" height="175" viewBox="0 0 192 175" fill="none" xmlns="http://www.w3.org/2000/svg">
<g clip-path="url(#clip0_2_47)">
<g filter="url(#filter0_d_2_47)">
<rect x="-31" y="388.469" width="550" height="25" transform="rotate(-65 -31 388.469)" fill="#3F88C5"/>
</g>
<g filter="url(#filter1_d_2_47)">
<rect x="-52.8416" y="377.766" width="550" height="25" transform="rotate(-65 -52.8416 377.766)" fill="#AD343E"/>
</g>
<g filter="url(#filter2_d_2_47)">
<rect x="-52.683" y="328.1" width="550" height="25" transform="rotate(-65 -52.683 328.1)" fill="#F2AF29"/>
</g>
<circle cx="95.5" cy="87.5" r="87.5" fill="#353535"/>
<g filter="url(#filter3_d_2_47)">
<path d="M63.3616 25.8662C62.1836 26.4836 60.722 26.0363 60.1047 24.8517C59.4873 23.6735 59.9346 22.2118 61.119 21.5943C75.4509 14.0586 91.7046 11.4754 107.34 13.857C122.604 16.1757 137.289 23.2199 149.033 34.9645C163.673 49.6073 171 68.8049 171 88.0043C171 107.196 163.68 126.401 149.033 141.044C148.088 141.989 146.557 141.989 145.612 141.044C144.667 140.099 144.667 138.568 145.612 137.623C159.308 123.925 166.162 105.968 166.162 88.0105C166.162 70.0532 159.314 52.0958 145.612 38.3984C134.625 27.4099 120.885 20.8201 106.622 18.6522C91.9754 16.4218 76.7608 18.8349 63.3686 25.8792L63.3616 25.8662ZM96.0003 70.5507C100.82 70.5507 105.185 72.5038 108.342 75.6606C111.498 78.8172 113.451 83.1837 113.451 88.0036C113.451 92.8235 111.498 97.1901 108.342 100.347C105.185 103.503 100.82 105.457 96.0003 105.457C91.1811 105.457 86.8153 103.503 83.6591 100.347C80.503 97.1901 78.55 92.8235 78.55 88.0036C78.55 83.1837 80.5028 78.8172 83.6591 75.6606C86.8153 72.504 91.1811 70.5507 96.0003 70.5507ZM104.921 79.0819C102.64 76.801 99.484 75.3896 96.0003 75.3896C92.5166 75.3896 89.3603 76.801 87.0799 79.0819C84.7995 81.3628 83.3882 84.5194 83.3882 88.0036C83.3882 91.4878 84.7993 94.6446 87.0799 96.9254C89.3605 99.2061 92.5166 100.618 96.0003 100.618C99.484 100.618 102.64 99.2063 104.921 96.9254C107.201 94.6444 108.612 91.4878 108.612 88.0036C108.612 84.5194 107.201 81.3626 104.921 79.0819ZM84.913 67.1231C83.7413 67.7468 82.2798 67.3058 81.6561 66.1275C81.0324 64.9556 81.4734 63.4939 82.6515 62.8701C84.68 61.7927 86.8535 60.9484 89.1213 60.3813C91.3388 59.8268 93.6509 59.537 96.0069 59.537C103.85 59.537 110.969 62.7252 116.123 67.8729L116.135 67.8855C121.282 73.0395 124.464 80.153 124.464 87.9978C124.464 95.8422 121.276 102.962 116.129 108.117L116.116 108.129C110.963 113.277 103.851 116.459 96.0071 116.459C88.1638 116.459 81.0452 113.271 75.8913 108.123L75.8787 108.11C70.7318 102.956 67.5504 95.8427 67.5504 87.998C67.5504 86.1645 67.7268 84.3562 68.0669 82.5919C68.4134 80.7961 68.93 79.0509 69.5978 77.3874C70.0955 76.1525 71.5003 75.5476 72.7351 76.0454C73.9698 76.5431 74.5746 77.9482 74.0769 79.1831C73.5225 80.5567 73.0941 82.0058 72.8044 83.4991C72.5272 84.942 72.3823 86.4415 72.3823 87.9979C72.3823 94.5255 75.0219 100.435 79.2932 104.7C83.5707 108.978 89.4736 111.619 96.0061 111.619C102.533 111.619 108.442 108.979 112.706 104.707C116.983 100.429 119.623 94.5247 119.623 87.9913C119.623 81.4637 116.984 75.5537 112.712 71.2888C108.435 67.0107 102.532 64.3706 95.9995 64.3706C94.0087 64.3706 92.0873 64.61 90.2666 65.0637C88.3767 65.5299 86.5749 66.2293 84.9118 67.1176L84.913 67.1231ZM78.3676 72.277C77.473 73.2662 75.9484 73.3481 74.9531 72.4597C73.964 71.565 73.8821 70.0403 74.7704 69.0447L75.0161 68.7738C75.9106 67.7846 77.4352 67.7027 78.4305 68.5911C79.4196 69.4858 79.5015 71.0106 78.6132 72.0061L78.3676 72.277ZM125.918 31.0508C127.096 31.6682 127.549 33.1301 126.932 34.3082C126.315 35.4864 124.853 35.9401 123.675 35.3226C112.316 29.3496 99.421 27.308 87.0045 29.1983C74.9089 31.038 63.2729 36.6206 53.9497 45.9394C42.3392 57.5516 36.5304 72.7811 36.5304 88.0028C36.5304 103.225 42.3389 118.448 53.9497 130.066C54.8946 131.011 54.8946 132.543 53.9497 133.488C53.0047 134.433 51.4738 134.433 50.5289 133.488C37.9734 120.93 31.692 104.467 31.692 88.003C31.692 71.5393 37.9729 55.082 50.5289 42.5185C60.6022 32.4436 73.196 26.4075 86.2802 24.4159C99.6861 22.3745 113.627 24.5862 125.918 31.0508ZM66.0817 144.948C64.9036 144.331 64.4501 142.869 65.0674 141.691C65.6848 140.513 67.1464 140.059 68.3243 140.677C79.6829 146.65 92.5784 148.691 104.995 146.801C117.09 144.961 128.726 139.379 138.05 130.06C149.66 118.448 155.469 103.218 155.469 87.9964C155.469 72.7746 149.66 57.5513 138.05 45.933C137.105 44.9878 137.105 43.4567 138.05 42.5117C138.995 41.5665 140.526 41.5665 141.47 42.5117C154.026 55.0691 160.307 71.5325 160.307 87.9962C160.307 104.46 154.026 120.917 141.47 133.481C131.397 143.556 118.803 149.592 105.719 151.583C92.3133 153.625 78.3724 151.413 66.0817 144.948ZM128.638 150.134C129.816 149.516 131.278 149.964 131.895 151.148C132.513 152.327 132.065 153.788 130.881 154.406C116.549 161.941 100.295 164.525 84.6598 162.143C69.3955 159.824 54.7112 152.78 42.9672 141.036C28.3265 126.393 21 107.195 21 87.9957C21 68.8045 28.3204 49.5987 42.9672 34.956C43.9121 34.0109 45.4431 34.0109 46.388 34.956C47.3329 35.9011 47.3329 37.4322 46.388 38.3773C32.6922 52.0751 25.8384 70.0321 25.8384 87.9894C25.8384 105.947 32.6863 123.904 46.388 137.602C57.3748 148.59 71.1145 155.18 85.3776 157.348C100.025 159.578 115.239 157.165 128.631 150.121L128.638 150.134Z" fill="#474747"/>
</g>
<g filter="url(#filter4_d_2_47)">
<path d="M22.2375 84.1381C24.9348 83.3647 27.3533 83.0943 29.493 83.3268C31.6214 83.5203 33.8145 84.1606 36.0723 85.2477L33.9984 89.523C32.1263 88.7483 30.3691 88.3003 28.7267 88.179C27.1122 88.0074 25.4645 88.1626 23.7835 88.6446C21.6726 89.2498 20.0732 90.2373 18.9852 91.6069C17.8972 92.9765 17.6223 94.5995 18.1603 96.4759C18.4966 97.6486 19.017 98.5782 19.7215 99.2646C20.4148 99.9119 21.4821 100.389 22.9236 100.694C24.4042 100.989 26.4628 101.16 29.0994 101.208C31.8645 101.261 34.2165 101.496 36.1552 101.913C38.094 102.331 39.8013 103.195 41.2773 104.506C42.7811 105.767 43.8805 107.609 44.5755 110.033C45.248 112.379 45.2557 114.619 44.5986 116.753C43.9806 118.876 42.7228 120.76 40.8251 122.404C38.9665 124.037 36.5517 125.279 33.5808 126.131C27.9907 127.734 22.9183 127.306 18.3633 124.847L20.4372 120.572C22.4602 121.43 24.413 121.97 26.2957 122.192C28.1672 122.374 30.1388 122.168 32.2107 121.574C34.7125 120.857 36.6106 119.657 37.905 117.974C39.1881 116.253 39.4934 114.219 38.8209 111.874C38.4397 110.544 37.8718 109.523 37.117 108.808C36.351 108.055 35.2416 107.506 33.789 107.161C32.3754 106.805 30.3949 106.611 27.8477 106.58C23.3453 106.517 19.8842 105.881 17.4643 104.671C15.0444 103.461 13.4029 101.351 12.5398 98.3414C11.9569 96.3086 11.9634 94.3396 12.5593 92.4342C13.1943 90.5176 14.3406 88.8351 15.9983 87.3867C17.695 85.9272 19.7748 84.8443 22.2375 84.1381ZM60.8426 83.3485C64.7908 82.2164 68.0871 82.7942 70.7315 85.0819C73.3758 87.3697 75.4322 91.074 76.9006 96.195C78.2906 101.042 78.356 105.254 77.097 108.83C75.838 112.407 73.2734 114.75 69.4034 115.859C65.9634 116.846 62.9298 116.446 60.3027 114.661L64.5061 129.321L59.2965 131.512L46.8542 88.1211L51.4865 86.7928L53.0908 90.8384C53.7761 88.9496 54.8024 87.365 56.1697 86.0845C57.5259 84.7649 59.0835 83.8529 60.8426 83.3485ZM66.8524 111.831C71.9342 110.374 73.3486 105.717 71.0956 97.8596C68.8313 89.9631 65.3732 86.6818 60.7214 88.0157C59.1968 88.4529 57.938 89.3004 56.9449 90.5582C55.9518 91.816 55.1879 93.283 54.6532 94.9593L58.9744 110.029C60.1037 111.017 61.35 111.675 62.7133 112.003C64.0654 112.292 65.4451 112.235 66.8524 111.831ZM87.0645 76.591L95.9254 107.493L90.5308 109.04L81.6699 78.1379L87.0645 76.591ZM80.0547 62.5461C81.1883 62.221 82.2079 62.3095 83.1133 62.8113C84.0187 63.3132 84.6227 64.0919 84.9254 65.1473C85.228 66.2028 85.1284 67.1832 84.6265 68.0887C84.1134 68.955 83.2901 69.5507 82.1564 69.8757C81.0619 70.1896 80.0675 70.1151 79.1733 69.6523C78.2679 69.1505 77.6638 68.3718 77.3612 67.3163C77.0585 66.2609 77.1581 65.2804 77.66 64.375C78.1619 63.4696 78.9601 62.86 80.0547 62.5461ZM112.559 68.5191C115.374 67.712 117.804 67.9248 119.849 69.1573C121.934 70.3787 123.397 72.4553 124.238 75.3871L130.593 97.5519L125.199 99.0988L119.062 77.6963C118.434 75.5072 117.581 74.0807 116.502 73.417C115.423 72.7533 114.082 72.6513 112.48 73.1109C110.838 73.5816 109.526 74.4655 108.544 75.7624C107.562 77.0593 106.776 78.7442 106.186 80.8171L112.474 102.747L107.08 104.294L98.2188 73.3926L102.851 72.0643L104.632 76.5034C105.255 74.5478 106.234 72.871 107.568 71.4732C108.941 70.0643 110.604 69.0795 112.559 68.5191ZM135.716 52.3601L147.301 92.761L141.731 94.3583L130.146 53.9574L135.716 52.3601ZM173.925 83.6038C172.295 85.594 170.191 86.959 167.611 87.6988C164.992 88.4498 162.726 88.2955 160.815 87.236C158.931 86.1262 157.58 84.1445 156.762 81.2908L151.415 62.6442L146.021 64.1911L144.827 60.0279L150.222 58.481L148.221 51.5032L153.43 49.3113L155.616 56.9341L162.946 54.8324L163.553 59.1638L156.81 61.0974L162.09 79.5094C162.549 81.1121 163.159 82.2064 163.919 82.7922C164.707 83.3277 165.766 83.4049 167.095 83.0238C168.307 82.6763 169.557 81.8735 170.847 80.6154L173.925 83.6038ZM172.96 41.6807L180.091 68.7632L175.342 70.1251L166.979 43.3957L172.96 41.6807ZM179.477 75.4753C180.65 75.1391 181.74 75.2497 182.746 75.8074C183.752 76.365 184.417 77.2107 184.742 78.3443C185.067 79.478 184.957 80.5673 184.41 81.6124C183.853 82.6185 182.987 83.2896 181.815 83.6259C180.681 83.9509 179.611 83.8347 178.605 83.277C177.588 82.6803 176.917 81.8151 176.592 80.6814C176.267 79.5478 176.383 78.478 176.941 77.472C177.498 76.4659 178.344 75.8004 179.477 75.4753Z" fill="#E0E0CE"/>
</g>
</g>
<defs>
<filter id="filter0_d_2_47" x="-41" y="-116" width="275.098" height="529.035" filterUnits="userSpaceOnUse" color-interpolation-filters="sRGB">
<feFlood flood-opacity="0" result="BackgroundImageFix"/>
<feColorMatrix in="SourceAlpha" type="matrix" values="0 0 0 0 0 0 0 0 0 0 0 0 0 0 0 0 0 0 127 0" result="hardAlpha"/>
<feOffset dy="4"/>
<feGaussianBlur stdDeviation="5"/>
<feComposite in2="hardAlpha" operator="out"/>
<feColorMatrix type="matrix" values="0 0 0 0 0 0 0 0 0 0 0 0 0 0 0 0 0 0 0.25 0"/>
<feBlend mode="normal" in2="BackgroundImageFix" result="effect1_dropShadow_2_47"/>
<feBlend mode="normal" in="SourceGraphic" in2="effect1_dropShadow_2_47" result="shape"/>
</filter>
<filter id="filter1_d_2_47" x="-62.8416" y="-126.704" width="275.098" height="529.035" filterUnits="userSpaceOnUse" color-interpolation-filters="sRGB">
<feFlood flood-opacity="0" result="BackgroundImageFix"/>
<feColorMatrix in="SourceAlpha" type="matrix" values="0 0 0 0 0 0 0 0 0 0 0 0 0 0 0 0 0 0 127 0" result="hardAlpha"/>
<feOffset dy="4"/>
<feGaussianBlur stdDeviation="5"/>
<feComposite in2="hardAlpha" operator="out"/>
<feColorMatrix type="matrix" values="0 0 0 0 0 0 0 0 0 0 0 0 0 0 0 0 0 0 0.25 0"/>
<feBlend mode="normal" in2="BackgroundImageFix" result="effect1_dropShadow_2_47"/>
<feBlend mode="normal" in="SourceGraphic" in2="effect1_dropShadow_2_47" result="shape"/>
</filter>
<filter id="filter2_d_2_47" x="-62.683" y="-176.369" width="275.098" height="529.035" filterUnits="userSpaceOnUse" color-interpolation-filters="sRGB">
<feFlood flood-opacity="0" result="BackgroundImageFix"/>
<feColorMatrix in="SourceAlpha" type="matrix" values="0 0 0 0 0 0 0 0 0 0 0 0 0 0 0 0 0 0 127 0" result="hardAlpha"/>
<feOffset dy="4"/>
<feGaussianBlur stdDeviation="5"/>
<feComposite in2="hardAlpha" operator="out"/>
<feColorMatrix type="matrix" values="0 0 0 0 0 0 0 0 0 0 0 0 0 0 0 0 0 0 0.25 0"/>
<feBlend mode="normal" in2="BackgroundImageFix" result="effect1_dropShadow_2_47"/>
<feBlend mode="normal" in="SourceGraphic" in2="effect1_dropShadow_2_47" result="shape"/>
</filter>
<filter id="filter3_d_2_47" x="17" y="13" width="158" height="158" filterUnits="userSpaceOnUse" color-interpolation-filters="sRGB">
<feFlood flood-opacity="0" result="BackgroundImageFix"/>
<feColorMatrix in="SourceAlpha" type="matrix" values="0 0 0 0 0 0 0 0 0 0 0 0 0 0 0 0 0 0 127 0" result="hardAlpha"/>
<feOffset dy="4"/>
<feGaussianBlur stdDeviation="2"/>
<feComposite in2="hardAlpha" operator="out"/>
<feColorMatrix type="matrix" values="0 0 0 0 0 0 0 0 0 0 0 0 0 0 0 0 0 0 0.25 0"/>
<feBlend mode="normal" in2="BackgroundImageFix" result="effect1_dropShadow_2_47"/>
<feBlend mode="normal" in="SourceGraphic" in2="effect1_dropShadow_2_47" result="shape"/>
</filter>
<filter id="filter4_d_2_47" x="2.54315" y="36.0085" width="190.756" height="113.843" filterUnits="userSpaceOnUse" color-interpolation-filters="sRGB">
<feFlood flood-opacity="0" result="BackgroundImageFix"/>
<feColorMatrix in="SourceAlpha" type="matrix" values="0 0 0 0 0 0 0 0 0 0 0 0 0 0 0 0 0 0 127 0" result="hardAlpha"/>
<feOffset dy="4"/>
<feGaussianBlur stdDeviation="2"/>
<feComposite in2="hardAlpha" operator="out"/>
<feColorMatrix type="matrix" values="0 0 0 0 0 0 0 0 0 0 0 0 0 0 0 0 0 0 0.25 0"/>
<feBlend mode="normal" in2="BackgroundImageFix" result="effect1_dropShadow_2_47"/>
<feBlend mode="normal" in="SourceGraphic" in2="effect1_dropShadow_2_47" result="shape"/>
</filter>
<clipPath id="clip0_2_47">
<rect width="191.912" height="175" fill="white"/>
</clipPath>
</defs>
</svg>
