<svg width="14" height="14" viewBox="0 0 14 14" fill="none" xmlns="http://www.w3.org/2000/svg">
<path fill-rule="evenodd" clip-rule="evenodd" d="M5.95646 1.09942C6.2856 0.0778613 7.72428 0.0778613 8.05351 1.09942L9.17382 4.57822H12.7963C13.8735 4.57822 14.2984 5.95407 13.4456 6.57891L10.5115 8.72974L11.633 12.2121C11.9561 13.2157 10.8113 14.0894 9.93456 13.4467L7.00515 11.2994L4.07574 13.4467C3.199 14.0894 2.05422 13.2157 2.37733 12.2121L3.49942 8.72974L0.56465 6.57891C-0.288143 5.95413 0.136752 4.57822 1.21397 4.57822H4.83648L5.95646 1.09942ZM6.97742 1.42857L5.61774 5.65071H1.21374C1.19759 5.65071 1.1916 5.65669 1.18622 5.67285C1.18023 5.6914 1.18322 5.70277 1.19818 5.71415L4.75711 8.32213L3.39802 12.5406C3.39264 12.5586 3.39443 12.5705 3.40999 12.5819C3.42256 12.5909 3.42914 12.5903 3.44111 12.5819L7.00494 9.96961L10.5688 12.5819C10.5807 12.5909 10.5867 12.5909 10.5999 12.5819C10.6154 12.5705 10.6172 12.5586 10.6119 12.5406L9.25276 8.32213L12.8117 5.71415C12.8266 5.70278 12.8296 5.6914 12.8237 5.67285C12.8183 5.65669 12.8129 5.65071 12.7961 5.65071H8.39213L7.03245 1.42857C7.02766 1.41301 7.02227 1.40583 7.00492 1.40583C6.98756 1.40583 6.98221 1.41301 6.97742 1.42857Z" fill="black"/>
</svg>
