<svg width="86" height="90" viewBox="0 0 86 90" fill="none" xmlns="http://www.w3.org/2000/svg">
<path fill-rule="evenodd" clip-rule="evenodd" d="M66.0092 23.0028C66.0092 35.7058 55.7122 46.0028 43.0092 46.0028C30.3062 46.0028 20.0092 35.7058 20.0092 23.0028C20.0092 10.2998 30.3062 0.00280762 43.0092 0.00280762C55.7122 0.00280762 66.0092 10.2998 66.0092 23.0028ZM59.0092 23.0028C59.0092 31.8387 51.8451 39.0028 43.0092 39.0028C34.1733 39.0028 27.0092 31.8387 27.0092 23.0028C27.0092 14.1669 34.1733 7.00281 43.0092 7.00281C51.8451 7.00281 59.0092 14.1669 59.0092 23.0028Z" fill="black"/>
<path fill-rule="evenodd" clip-rule="evenodd" d="M0.00921631 85.4598C0.00921631 67.5338 14.5402 53.0028 32.4662 53.0028H53.5522C71.4782 53.0028 86.0092 67.5338 86.0092 85.4598C86.0092 87.9676 83.974 90.0028 81.4662 90.0028H4.55222C2.04442 90.0028 0.00921631 87.9676 0.00921631 85.4598ZM53.5522 60.0028C66.7822 60.0028 77.6572 70.0968 78.8922 83.0028H7.12622C8.36062 70.0968 19.2352 60.0028 32.4662 60.0028H53.5522Z" fill="black"/>
</svg>
