<svg width="89" height="54" viewBox="0 0 89 54" fill="none" xmlns="http://www.w3.org/2000/svg">
<path fill-rule="evenodd" clip-rule="evenodd" d="M44.5 10.9982C35.6634 10.9982 28.5 18.1616 28.5 26.9982C28.5 35.8348 35.6634 42.9982 44.5 42.9982C53.3366 42.9982 60.5 35.8348 60.5 26.9982C60.5 18.1616 53.3366 10.9982 44.5 10.9982ZM33.5 26.9982C33.5 20.9231 38.4249 15.9982 44.5 15.9982C50.5751 15.9982 55.5 20.9231 55.5 26.9982C55.5 33.0733 50.5751 37.9982 44.5 37.9982C38.4249 37.9982 33.5 33.0733 33.5 26.9982Z" fill="black"/>
<path fill-rule="evenodd" clip-rule="evenodd" d="M44.5 -0.00183105C26.675 -0.00183105 10.9248 8.85397 1.45642 22.3807C-0.485472 25.1549 -0.485472 28.8415 1.45642 31.6157C10.9248 45.1425 26.675 53.9982 44.5 53.9982C62.325 53.9982 78.0752 45.1425 87.5436 31.6157C89.4855 28.8415 89.4855 25.1549 87.5436 22.3807C78.0752 8.85397 62.325 -0.00183105 44.5 -0.00183105ZM5.5526 25.2479C14.1214 13.0063 28.3685 4.99817 44.5 4.99817C60.6315 4.99817 74.8786 13.0063 83.4474 25.2479C84.1842 26.3006 84.1842 27.6958 83.4474 28.7485C74.8786 40.9901 60.6315 48.9982 44.5 48.9982C28.3685 48.9982 14.1214 40.9901 5.5526 28.7485C4.8158 27.6958 4.8158 26.3006 5.5526 25.2479Z" fill="black"/>
</svg>
